<svg version="1.1" xmlns="http://www.w3.org/2000/svg" viewBox="0 0 298.64468947063006 135.13859839771692" width="895.9340684118902" height="405.41579519315076">
  <!-- svg-source:excalidraw -->
  
  <defs>
    <style class="style-fonts">
      @font-face {
        font-family: "Virgil";
        src: url("https://excalidraw.com/Virgil.woff2");
      }
      @font-face {
        font-family: "Cascadia";
        src: url("https://excalidraw.com/Cascadia.woff2");
      }
    </style>
  </defs>
  <g stroke-linecap="round"><g transform="translate(20.188767644106065 112.74134807723101) rotate(0 133.901433738562 0.24520712578396342)"><path d="M-0.65 0.77 C57.98 0.99, 113.66 0.9, 268.46 0.64 M-0.32 0.31 C72.62 -0.28, 144.68 -0.31, 268.41 -0.4" stroke="#8cd000" stroke-width="1" fill="none"></path></g><g transform="translate(20.188767644106065 112.74134807723101) rotate(0 133.901433738562 0.24520712578396342)"><path d="M268.6 1.18 L256.17 5.94 L254.42 -4.95 L267.66 0.62" stroke="none" stroke-width="0" fill="#8cd000" fill-rule="evenodd"></path><path d="M267.78 0.33 C266.66 2.47, 262.7 3.73, 254.88 6.56 M268.1 -0.11 C264.63 1.25, 260.34 2.94, 254.84 5.56 M254.75 6.68 C255.24 1.01, 254.03 -2.74, 253.6 -6.31 M254.31 6.37 C254.3 1.61, 254.12 -3.97, 255.1 -6.73 M253.48 -7.61 C260.86 -3.24, 265.3 -3.63, 268.04 -0.13 M254.86 -7.34 C258.75 -5.04, 261.4 -4.01, 268.55 0.14 M268.41 -0.4 C268.41 -0.4, 268.41 -0.4, 268.41 -0.4 M268.41 -0.4 C268.41 -0.4, 268.41 -0.4, 268.41 -0.4" stroke="#8cd000" stroke-width="1" fill="none"></path></g></g><mask></mask><g transform="translate(207.6331938379435 114.69160864958326) rotate(0 31.119489188116177 5.22349487406683)"><text x="31.119489188116177" y="0" font-family="Virgil, Segoe UI Emoji" font-size="8.35759179850695px" fill="#8cd000" text-anchor="middle" style="white-space: pre;" direction="ltr" dominant-baseline="text-before-edge">Punkte Klausur</text></g><g stroke-linecap="round"><g transform="translate(23.783235517792946 123.87747099343653) rotate(0 0.2586828151006557 -56.54791848221777)"><path d="M0.12 0.78 C-2.32 -39.46, 1.11 -82.11, 1.69 -112.57 M0.6 -0.95 C-1.6 -24.57, -1.59 -50.41, -0.26 -113.88" stroke="#8cd000" stroke-width="1" fill="none"></path></g><g transform="translate(23.783235517792946 123.87747099343653) rotate(0 0.2586828151006557 -56.54791848221777)"><path d="M0.26 -112.22 L4.33 -98.97 L-5.82 -99.05 L0.72 -115.65" stroke="none" stroke-width="0" fill="#8cd000" fill-rule="evenodd"></path><path d="M-0.17 -113.29 C0.72 -107.64, 5.52 -103.79, 7.12 -99.53 M0.19 -114.59 C0.79 -110.64, 2.14 -108.34, 5.66 -100.52 M6.83 -100.24 C3.32 -101.12, 0.37 -100.21, -6.17 -100.16 M5.71 -99.75 C1.54 -99.95, -3.23 -100.27, -7.23 -100.32 M-7.15 -99.06 C-5.4 -106.52, -0.94 -108.98, 1.18 -114.39 M-7.06 -100.89 C-4.91 -103.17, -3.2 -107.2, -0.57 -114.14 M-0.26 -113.88 C-0.26 -113.88, -0.26 -113.88, -0.26 -113.88 M-0.26 -113.88 C-0.26 -113.88, -0.26 -113.88, -0.26 -113.88" stroke="#8cd000" stroke-width="1" fill="none"></path></g></g><mask></mask><g transform="translate(-6.002146895957139 42.69139745648033) rotate(270 21.6208783401853 5.618731444228274)"><text x="21.620878340185325" y="0" font-family="Virgil, Segoe UI Emoji" font-size="8.989970310765258px" fill="#8cd000" text-anchor="middle" style="white-space: pre;" direction="ltr" dominant-baseline="text-before-edge">Häufigkeit</text></g><g stroke-linecap="round"><g transform="translate(173.24755805886207 46.54350093922221) rotate(0 33.900932721278195 32.920171143229936)"><path d="M1.34 1.06 C3.52 -0.22, 4.93 0.63, 13.18 0.08 M-0.62 0.43 C2.3 -0.01, 5.38 0.29, 13.91 -0.2 M13.83 -1.26 C13.6 24.39, 12.54 49.91, 14.24 67.1 M14.26 -0.54 C13.02 19.54, 13.26 40.79, 13.45 65.77 M14.58 64.91 C11.34 51.82, 14.62 38.15, 11.62 16.91 M12.42 65.76 C13.25 46.32, 13.79 28.34, 13.22 17.11 M13.88 17.22 C17.31 17.49, 19.36 16.52, 26.98 17.64 M13.16 16.47 C18.08 17.38, 24.64 17.36, 28.11 17.24 M28.19 15.38 C29.34 27.37, 27.27 40.28, 27.55 65.3 M26.54 16.33 C27.14 31, 29.22 43.47, 29.36 65.85 M29.66 66.91 C27.92 55.47, 28.68 47.63, 27.43 38.79 M28.82 65.03 C28.9 56.39, 28.31 49.24, 29.71 40.2 M28.47 40.35 C30.79 40.24, 34.7 39.31, 43.62 40.76 M29.49 39.02 C33.25 39.32, 38.59 39.99, 42.59 39.87 M40.53 42.05 C41.75 46.02, 40.54 52.78, 43.61 66.76 M43.07 41.41 C42.56 45.65, 42.79 51.83, 42.86 65.37 M42.54 65.31 C43.65 63.37, 42.32 57.86, 42.32 47.96 M42.72 66.35 C43.49 60.78, 42.67 55.51, 43.37 48.09 M43.96 49.3 C45.88 47.96, 49.67 48, 54.39 48.51 M43.78 48 C46.13 48.66, 49.26 48.55, 54.56 48.37 M55.33 46.86 C54.61 52.93, 55.74 58.66, 55.68 66.39 M54.53 48.78 C55.28 54.21, 54.85 57.51, 56.12 64.87 M55.56 66.22 C56.27 62.46, 56.03 60.14, 56.73 54.93 M56.57 65.5 C55.81 62.87, 55.98 61.28, 56.34 54.93 M56.41 55.09 C58.05 55.73, 60.81 54.27, 68.24 54.3 M55.68 54.88 C60.08 54.95, 64.98 55.45, 67.04 55.29 M67.06 55.62 C68.45 57.47, 68.99 60.05, 67.53 66.04 M67.88 55.11 C67.35 57.32, 68.15 59.77, 68.42 65.68" stroke="#8cd000" stroke-width="1" fill="none"></path></g></g><mask></mask><g stroke-linecap="round"><g transform="translate(172.83422676814052 47.163497875304415) rotate(0 -57.3452284234811 28.835866656228973)"><path d="M-0.85 0.53 C1.15 15.07, -0.84 25.32, 0.57 65.13 M-0.22 0.89 C0.18 17.86, -0.04 36.33, -0.43 65.32 M0.52 67.12 C1.19 44.47, -0.63 27.35, -1.07 7.54 M1.04 65.62 C-0.96 48.36, 0.15 32.49, 0.96 7.16 M-0.76 5.34 C-3.32 7.51, -10.38 6.82, -12.04 6.82 M0.99 6.66 C-3.57 7.24, -8.05 7.7, -12.65 7.46 M-12.23 6.09 C-11.02 22.25, -11.4 37.02, -13.54 65.8 M-13.7 6.54 C-12.17 18.54, -11.9 31.99, -12.21 64.38 M-13.36 63.51 C-12.08 51.07, -11.74 37.21, -13.15 16.15 M-13.41 64.86 C-12.64 50.32, -12.5 39.03, -12.3 17.2 M-11.34 17.28 C-15.82 18.73, -20.17 17.42, -24.93 17.61 M-11.98 17.94 C-16.05 18.37, -19.7 17.48, -25.88 17.77 M-24.28 17.16 C-26.38 28.12, -25.43 38.39, -24.83 66.26 M-25.78 18.37 C-26.06 29.68, -26.27 41.41, -24.21 64.36 M-24.09 63.47 C-23.95 44.21, -24.87 21.77, -24.39 10.99 M-24.76 64.27 C-24.78 43.14, -25.29 21.43, -26.49 8.78 M-27.09 9.18 C-31.12 8.54, -35.66 8.45, -37.67 9.42 M-26.35 9.15 C-28.84 9.48, -32.15 9.61, -38.53 9.69 M-37.11 8.97 C-38.34 24.05, -40.29 39.09, -38.26 64.17 M-38.73 10.42 C-38.54 28.4, -37.83 46.7, -38.16 64.31 M-40.1 64.64 C-39.71 35.43, -39.69 8.58, -38.89 -8.76 M-38.27 64.17 C-38.7 49.49, -38.57 34.65, -37.95 -9.84 M-37.99 -9.06 C-40.28 -8.34, -43.78 -9.7, -49.8 -9.41 M-38.46 -8.52 C-41.68 -8.61, -45.26 -9.12, -50.39 -8.39 M-52.04 -8.09 C-48.63 10.61, -52.65 31.98, -51.39 64.69 M-50.94 -8.59 C-50.94 9.83, -51.07 27.35, -51.75 65.74 M-51.43 65.13 C-51.83 43.44, -51.57 23.07, -50.5 0.97 M-50.65 64.84 C-52.8 46.36, -52.56 26.33, -51.06 1.41 M-51.15 2.33 C-54.79 2.02, -60.38 2.17, -63.24 1.09 M-50.8 1.77 C-54.47 1.61, -57.04 1.42, -62.88 1.61 M-61.59 1.96 C-63.49 28.32, -64.47 52.22, -63.02 65.55 M-63.74 1.11 C-62.18 24.62, -63.8 46.83, -64.07 65.61 M-66.34 64.65 C-66.26 54.39, -66.18 43.99, -62.99 16.55 M-65.47 67.51 C-64.06 57.05, -64.44 45.79, -63.23 15.66 M-63.61 17.1 C-66.29 16.75, -69.65 16.4, -76.03 17.28 M-64.14 16.47 C-68.01 15.75, -72.42 16.52, -75.96 15.89 M-77.85 15.36 C-75.95 33.5, -74.78 50.37, -77.23 66.21 M-76.55 16.67 C-76.83 30.36, -76.8 47.08, -76.44 65.18 M-75.37 65.63 C-77.65 54.15, -76.09 42.73, -77.21 29.98 M-76.11 65.2 C-75.66 51.31, -76.06 37.4, -76.84 28.26 M-76.94 29.19 C-79.79 28.43, -82.25 27.91, -89.27 28.23 M-76.8 28.21 C-79.75 27.9, -83.78 27.71, -88.47 28.43 M-88.43 27.99 C-87.63 37.29, -86.79 46.96, -88.37 66.2 M-87.67 27.92 C-88.57 38, -87.77 48.15, -86.28 64.29 M-88.35 63.56 C-88.55 55.19, -88.42 46.93, -87.86 38.17 M-87.46 65.01 C-87.74 59.98, -87.52 53.74, -88.86 39.82 M-89.03 39.42 C-91.1 40.76, -92.43 40.47, -96.67 39.87 M-88.99 40.1 C-92.51 39.82, -95.11 39.98, -97.3 40.37 M-97.63 40.93 C-99.13 46.84, -97.79 49.29, -97.5 65.78 M-98.22 40.71 C-97.25 48.81, -99.41 56.61, -98.28 63.72 M-98.82 63.74 C-99.94 58.59, -99.88 51.59, -100.21 47.55 M-99.26 64.51 C-99.79 58.26, -99.57 53.47, -98.45 44.82 M-97.85 46.45 C-100.78 46.14, -104.53 46.18, -108.34 45.85 M-98.37 45.58 C-100.31 45.8, -102.2 45.73, -107.72 46.24 M-107.2 44.57 C-105.62 49.12, -108.26 55.03, -107.02 64.61 M-107.78 46.71 C-106.88 50.06, -106.68 55.27, -107.85 65.67 M-106.85 64.31 C-107.51 63.91, -106.91 61.72, -106.64 56.58 M-107.25 64.56 C-106.78 63.38, -107.13 61.37, -107.21 55.96 M-107.53 55.76 C-110.31 55.8, -114.06 56.37, -114.89 55.82 M-107.61 55.47 C-109.87 55.85, -111.68 55.68, -115.57 55.78 M-115.73 55.08 C-115.3 58.26, -115.88 61.98, -115.53 66.55 M-115.17 55.67 C-115.22 57.96, -115.14 60.58, -115.27 65.6" stroke="#8cd000" stroke-width="1" fill="none"></path></g></g><mask></mask></svg>